# xmcd
#
# Track frame offsets:
# 150
# 12780
# 25404
# 33375
# 44816
# 57560
# 67830
# 78047
# 96216
# 108757
# 120317
# 133634
# 145061
# 158268
# 168171
# 184330
# 197878
# 210286
# 222839
# 238819
# 252291
#
# Disc length: 4235 seconds
#
#
# Revision: 0
# Processed by: cddbd v1.5.2PL0 Copyright (c) Steve Scherf et al.
# Submitted via: FreeRIP 2.945 
#
DISCID=17108915
DTITLE=Various Artist - The Best Of Country - Vol 2 - Blue Blue Day
DYEAR=2009
DGENRE=
TTITLE0=TG Sheppard - Trying To Beat The Morning Home (E. Kahanek, TG Sheppard)
TTITLE1=Mickey Gilley - My Elusive Dreams (D. Houston)
TTITLE2=Don Gibson - Blue Blue Day (Don Gibson)
TTITLE3=Donna fargo - Funny Face (Y. Silver)
TTITLE4=Exile - Give Me One More Chance (Lemaire, Pennington)
TTITLE5=Faron Young - Live Fast, Love Hard, Die Young (J. Allison)
TTITLE6=Ferlin Husky - Gone (S. Rogers)
TTITLE7=Freddy Fender - Scret Love (S. Fain, P. Webster)
TTITLE8=Jack Greene - All The Time (Walker, Tellis)
TTITLE9=Lynn Anderson - You're My Man (G: Sutton)
TTITLE10=Janie Fricke - He's A Heartache (Henley, Silbar)
TTITLE11=Kitty Wells - Heartbreak, U.S.A. (H. Howard)
TTITLE12=Jack Greene - Statue Of A Fool (J. Crutchfield, Crutchfield)
TTITLE13=Lynn Anderson - What A Man My Man Is (R. Sutton)
TTITLE14=TG Sheppard - Strong Heart (C. F. Frank, A. Roberts)
TTITLE15=Mickey Gilley - True Love Ways (Holly, Petty)
TTITLE16=Porter Waggoner - Satisfied Mind (R. Hayes, Rhodes)
TTITLE17=Johnny Paycheck - Take This Job And Shove It (D. Coe)
TTITLE18=TG Sheppard - Party Time (B. Channel)
TTITLE19=Mickey Gilley - Room Full Of Roses (Spenicor)
TTITLE20=Jim Reeves - Medley (Reeves)
EXTD=2009 Luxury Multimedia Ltd.
EXTT0=
EXTT1=
EXTT2=
EXTT3=
EXTT4=
EXTT5=
EXTT6=
EXTT7=
EXTT8=
EXTT9=
EXTT10=
EXTT11=
EXTT12=
EXTT13=
EXTT14=
EXTT15=
EXTT16=
EXTT17=
EXTT18=
EXTT19=
EXTT20=
PLAYORDER=
